# xmcd
#
# Track frame offsets: 
#        150
#        14770
#        27241
#        39649
#        51970
#        65069
#        78124
#        89261
#        102518
#        115831
#        129171
#        140772
#        152631
#        163775
#        177177
#        188932
#        201852
#        213652
#        225580
#        237298
#        248631
#        261042
#        273537
#        285356
#        295516
#        308440
#
# Disc length: 4281 seconds
#
# Revision: 1
# Processed by: cddbd v1.5.2PL0 Copyright (c) Steve Scherf et al.
# Submitted via: ExactAudioCopy v0.95b4
#
DISCID=7010b71a
DTITLE=Big Joe Turner - Shoutin' The Blues
DYEAR=2000
DGENRE=Blues
TTITLE0=How Long, How Long Blues
TTITLE1=Low Down Dirty Shame
TTITLE2=Joe Turner Blues 
TTITLE3=Doggin' the Dog
TTITLE4=Rainy Day Blues
TTITLE5=Wee Baby Blues
TTITLE6=Corrine Corrina
TTITLE7=Nobody in Mind
TTITLE8=Somebody's Got to Go
TTITLE9=Ice Man
TTITLE10=Chewed Up Grass
TTITLE11=Blues on Central Avenue
TTITLE12=Blues in the Night (My Mama Done Tol' Me)
TTITLE13=Watch That Jive
TTITLE14=I Got Love for Sale
TTITLE15=Whistle Stop Blues
TTITLE16=Trouble Blues
TTITLE17=Old Piney Brown Is Gone
TTITLE18=Mardi Gras Boogie
TTITLE19=Rainy Weather Blues
TTITLE20=Boogie Woogie Baby
TTITLE21=I Wish I Had a Dollar
TTITLE22=Fuzzy Wuzzy Honey
TTITLE23=I Don't Dig It
TTITLE24=Battle of the Blues, Part 1
TTITLE25=Battle of the Blues, Part 2
EXTD=
EXTT0=
EXTT1=
EXTT2=
EXTT3=
EXTT4=
EXTT5=
EXTT6=
EXTT7=
EXTT8=
EXTT9=
EXTT10=
EXTT11=
EXTT12=
EXTT13=
EXTT14=
EXTT15=
EXTT16=
EXTT17=
EXTT18=
EXTT19=
EXTT20=
EXTT21=
EXTT22=
EXTT23=
EXTT24=
EXTT25=
PLAYORDER=
